<?xml version="1.0" encoding="UTF-8" standalone="no"?>
<!DOCTYPE svg PUBLIC "-//W3C//DTD SVG 1.1//EN" "http://www.w3.org/Graphics/SVG/1.1/DTD/svg11.dtd">
<svg width="100%" height="100%" viewBox="0 0 500 152" version="1.1" xmlns="http://www.w3.org/2000/svg" xmlns:xlink="http://www.w3.org/1999/xlink" xml:space="preserve" xmlns:serif="http://www.serif.com/" style="fill-rule:evenodd;clip-rule:evenodd;stroke-linejoin:round;stroke-miterlimit:2;">
    <g transform="matrix(1,0,0,1,-871,-1758.32)">
        <g id="small-logo-words-beige" transform="matrix(0.482268,0,0,0.482268,450.93,1758.32)">
            <rect x="871.031" y="0" width="1036.77" height="315.14" style="fill:none;"/>
            <g transform="matrix(4.1637,0,0,4.1637,444.06,-309.399)">
                <path d="M103.543,148.414C103.543,148.414 115.806,148.746 131.433,149.007C135.59,149.076 139.984,149.128 144.448,149.165C146.3,149.18 148.163,149.188 150.026,149.188C152.515,149.187 155.003,149.174 157.463,149.151C161.287,149.116 165.041,149.06 168.619,148.999C184.246,148.728 196.509,148.414 196.509,148.414C196.723,148.414 196.896,148.241 196.896,148.027C196.896,147.813 196.723,147.64 196.509,147.64C196.509,147.64 184.246,147.326 168.619,147.055C165.041,146.994 161.287,146.938 157.463,146.903C155.003,146.88 152.515,146.867 150.026,146.866C148.163,146.866 146.3,146.874 144.448,146.889C139.984,146.926 135.59,146.978 131.433,147.047C115.806,147.308 103.543,147.64 103.543,147.64C103.33,147.64 103.156,147.813 103.156,148.027C103.156,148.241 103.33,148.414 103.543,148.414Z" style="fill:rgb(245,232,199);"/>
            </g>
            <g transform="matrix(4.1637,0,0,4.1637,441.736,-311.601)">
                <path d="M154.614,91.828L154.615,91.829C154.678,91.925 154.377,91.926 154.213,91.969C153.673,92.111 152.945,92.181 152.169,92.222C150.295,92.321 148.153,92.203 147.446,92.127C147.075,92.093 146.708,92.23 146.45,92.498C146.191,92.767 146.069,93.139 146.117,93.509C146.418,95.978 146.745,98.447 147.021,100.919C147.203,102.547 147.367,104.176 147.459,105.811C147.728,109.826 147.926,113.132 148.065,115.966C148.268,120.086 148.322,123.194 148.146,126.035C147.886,130.231 147.154,133.837 145.77,139.234C145.397,140.696 144.97,142.208 144.511,143.712C144.052,145.218 143.564,146.714 143.059,148.138C142.973,148.363 143.085,148.616 143.31,148.703C143.535,148.789 143.788,148.677 143.875,148.452C144.461,147.044 145.038,145.563 145.58,144.068C146.122,142.571 146.626,141.062 147.076,139.602C148.75,134.142 149.684,130.485 150.128,126.199C150.429,123.298 150.51,120.111 150.428,115.884C150.372,113.034 150.227,109.707 150.048,105.666C149.954,103.98 149.801,102.297 149.598,100.619C149.356,98.618 149.05,96.623 148.757,94.627C150.035,94.645 151.77,94.613 153.19,94.431C154.618,94.248 155.755,93.834 156.186,93.358C156.617,92.879 156.807,92.295 156.775,91.642C156.732,90.789 156.268,89.782 155.912,89.02C154.867,86.797 153.003,84.759 150.746,83.447C148.824,82.329 146.633,81.724 144.46,81.945C144.8,81.121 145.266,80.382 145.874,79.737C146.684,78.878 147.73,78.178 149.038,77.654C149.264,77.571 149.38,77.32 149.297,77.093C149.214,76.867 148.963,76.751 148.736,76.834C147.249,77.333 146.046,78.052 145.091,78.955C144.041,79.947 143.301,81.171 142.826,82.599C142.757,82.826 142.814,83.072 142.974,83.246C143.135,83.42 143.375,83.497 143.607,83.448C145.788,83.04 147.988,83.69 149.852,84.901C151.719,86.113 153.238,87.911 154.038,89.847C154.214,90.27 154.447,90.783 154.57,91.281C154.62,91.484 154.714,91.685 154.614,91.828ZM154.614,91.828C154.607,91.839 154.598,91.849 154.588,91.86C154.597,91.851 154.606,91.818 154.614,91.828Z" style="fill:rgb(245,232,199);"/>
            </g>
            <g transform="matrix(4.1637,0,0,4.1637,441.736,-311.601)">
                <path d="M116.808,148.621C116.808,148.621 117.756,144.591 120.715,141.755C121.565,140.939 122.596,140.25 123.839,139.771C124.881,139.37 126.076,139.127 127.461,139.151C128.661,139.114 129.694,139.361 130.592,139.796C131.64,140.303 132.518,141.026 133.243,141.861C135.658,144.639 136.554,148.364 136.554,148.364C136.592,148.605 136.818,148.77 137.059,148.732C137.301,148.694 137.466,148.468 137.428,148.227C137.428,148.227 137.21,145.491 135.948,142.67C135.422,141.496 134.704,140.33 133.772,139.323C132.69,138.154 131.302,137.236 129.583,136.779C128.927,136.604 128.219,136.52 127.461,136.504C126.449,136.512 125.514,136.613 124.661,136.832C122.265,137.45 120.469,138.769 119.177,140.332C117.92,141.85 117.132,143.575 116.656,145.062C116.034,147.001 115.934,148.491 115.934,148.491C115.897,148.732 116.064,148.957 116.305,148.993C116.547,149.03 116.772,148.863 116.808,148.621Z" style="fill:rgb(245,232,199);"/>
            </g>
            <g transform="matrix(4.1637,0,0,4.1637,441.736,-311.601)">
                <path d="M143.289,75.178C139.363,76.781 137.501,79.399 136.669,82.511C135.579,86.591 136.346,91.583 136.63,96.337C136.812,99.39 136.802,102.339 135.795,104.833C133.893,109.644 129.794,110.882 125.324,111.446C122.985,111.741 120.537,111.848 118.185,112.074C115.502,112.332 112.941,112.754 110.779,113.706C107.117,115.32 104.456,118.373 104.237,124.774C104.172,126.952 104.306,129.112 104.647,131.243C104.987,133.361 105.523,135.447 106.246,137.493C106.814,139.1 107.44,140.622 108.104,142.096C109.132,144.38 110.242,146.546 111.321,148.741C111.423,148.963 111.686,149.06 111.907,148.958C112.129,148.856 112.226,148.593 112.124,148.371C111.163,146.136 110.175,143.927 109.265,141.607C108.688,140.137 108.144,138.624 107.663,137.029C107.066,135.047 106.653,133.033 106.418,130.999C106.185,128.974 106.136,126.931 106.283,124.878C106.634,119.687 108.729,117.2 111.74,115.972C113.702,115.172 116.01,114.887 118.419,114.686C120.809,114.486 123.296,114.389 125.668,114.067C131.038,113.338 135.809,111.502 137.971,105.666C138.993,102.849 138.969,99.568 138.629,96.177C138.169,91.6 137.155,86.824 138.016,82.837C138.627,80.011 140.201,77.605 143.645,75.988C143.868,75.89 143.97,75.629 143.872,75.405C143.774,75.182 143.513,75.08 143.289,75.178Z" style="fill:rgb(245,232,199);"/>
            </g>
            <g transform="matrix(-3.7494,0,0,3.6871,1652.78,-241.052)">
                <path d="M148.887,77.244C146.224,78.87 145.524,80.653 144.59,82.954C148.406,84.201 162.491,92.401 151.475,93.414C150.1,93.54 148.708,93.476 147.334,93.349C148.22,100.088 150.133,117.081 149.738,122.796C149.177,130.897 146.46,140.248 143.467,148.027L136.902,148.027C136.453,146.286 135.994,144.511 135.141,142.927C133.548,139.97 131.074,137.828 127.461,137.828C123.46,137.828 120.374,139.656 118.3,142.927C117.319,144.474 116.78,146.87 116.253,148.624L111.035,148.624C108.913,144.434 106.664,138.335 105.872,133.733C105.361,130.766 105.228,127.732 105.273,124.722C105.295,123.296 105.626,121.874 106.07,120.52C110.594,106.726 126.613,117.351 134.582,108.963C135.888,107.588 136.596,103.312 136.616,101.589C136.705,93.88 133.624,79.784 143.467,75.583C140.927,76.839 139.498,78.719 138.48,81.745C139.367,81.889 139.833,81.748 143.467,82.652C144.271,80.016 146.954,78.18 148.887,77.244Z" style="fill:rgb(245,232,199);"/>
                <path d="M148.808,77.075C148.897,77.032 149.003,77.068 149.05,77.156C149.096,77.244 149.066,77.353 148.982,77.405C147.763,78.157 146.966,78.939 146.37,79.793C145.732,80.707 145.325,81.702 144.876,82.82C146.699,83.464 150.341,85.36 152.918,87.372C154.259,88.419 155.309,89.506 155.701,90.461C156.321,91.972 155.452,93.334 151.501,93.714C150.803,93.781 150.099,93.799 149.396,93.785C148.829,93.774 148.261,93.742 147.696,93.697C148.223,97.644 149.058,104.619 149.618,110.952C150.051,115.853 150.318,120.372 150.157,122.826C149.886,126.935 149.066,131.366 147.934,135.753C146.822,140.063 145.409,144.331 143.928,148.21C143.854,148.403 143.671,148.53 143.467,148.53L136.902,148.547C136.67,148.547 136.467,148.388 136.408,148.159C136.14,147.131 135.87,146.09 135.514,145.086C135.282,144.431 135.014,143.791 134.684,143.182C133.917,141.763 132.939,140.539 131.713,139.68C130.535,138.855 129.127,138.372 127.461,138.375C125.581,138.377 123.912,138.802 122.469,139.609C120.995,140.434 119.757,141.659 118.763,143.23C118.386,143.825 118.081,144.553 117.815,145.318C117.406,146.493 117.092,147.753 116.782,148.788C116.711,149.025 116.496,149.186 116.253,149.186L111.035,149.185C110.829,149.185 110.639,149.068 110.545,148.881C109.479,146.771 108.38,144.182 107.45,141.54C106.512,138.878 105.745,136.161 105.347,133.826C105.091,132.322 104.931,130.801 104.842,129.275C104.753,127.756 104.734,126.232 104.76,124.714C104.772,123.968 104.866,123.222 105.015,122.487C105.161,121.765 105.362,121.052 105.591,120.357C107.003,116.092 109.467,114.07 112.444,113.103C115.866,111.992 119.998,112.318 123.987,112.196C127.832,112.078 131.548,111.541 134.289,108.675C134.792,108.148 135.189,107.157 135.5,106.068C135.966,104.435 136.219,102.577 136.234,101.585C136.305,96.944 135.247,89.992 136.518,84.269C137.384,80.371 139.318,77.035 143.362,75.328C143.498,75.27 143.654,75.333 143.715,75.469C143.776,75.606 143.718,75.766 143.586,75.832C142.308,76.457 141.318,77.245 140.521,78.267C139.821,79.165 139.271,80.243 138.805,81.544C139.229,81.595 139.649,81.611 140.531,81.768C141.166,81.88 142.04,82.065 143.324,82.387C143.66,81.424 144.238,80.568 144.932,79.826C146.1,78.579 147.598,77.654 148.808,77.075ZM139.247,79.305C138.198,80.786 137.538,82.531 137.136,84.409C135.918,90.098 137.033,96.988 136.997,101.594C136.989,102.632 136.74,104.579 136.264,106.291C135.918,107.532 135.444,108.648 134.875,109.251C131.995,112.303 128.085,112.951 124.017,113.101C120.119,113.245 116.077,112.925 112.738,114.03C110.032,114.926 107.813,116.792 106.549,120.682C106.335,121.339 106.148,122.012 106.012,122.694C105.879,123.367 105.795,124.048 105.787,124.73C105.767,126.221 105.792,127.718 105.886,129.209C105.979,130.695 106.141,132.176 106.396,133.64C106.793,135.918 107.553,138.568 108.475,141.165C109.35,143.632 110.371,146.052 111.372,148.064C113.937,148.063 115.154,148.062 115.731,148.062L115.842,148.062C116.121,147.098 116.412,145.987 116.776,144.944C117.072,144.093 117.418,143.285 117.837,142.624C118.939,140.89 120.314,139.545 121.944,138.637C123.541,137.749 125.384,137.278 127.461,137.281C129.366,137.284 130.972,137.846 132.315,138.794C133.669,139.749 134.754,141.1 135.598,142.673C135.952,143.332 136.241,144.023 136.488,144.731C136.806,145.639 137.057,146.576 137.297,147.508C137.297,147.508 143.13,147.523 143.13,147.523C144.574,143.77 145.948,139.661 147.043,135.513C148.185,131.188 149.025,126.821 149.318,122.766C149.495,120.34 149.258,115.869 148.865,111.018C148.335,104.478 147.517,97.252 147.024,93.391C147.012,93.295 147.043,93.199 147.108,93.129C147.174,93.059 147.267,93.024 147.362,93.033C148.042,93.098 148.726,93.148 149.41,93.167C150.091,93.185 150.771,93.173 151.448,93.113C152.985,92.979 154.017,92.706 154.644,92.319C155.332,91.893 155.457,91.319 155.197,90.672C154.839,89.777 153.849,88.771 152.605,87.782C149.984,85.699 146.225,83.726 144.524,83.162C144.467,83.143 144.42,83.101 144.395,83.046C144.37,82.99 144.368,82.927 144.391,82.87C144.899,81.636 145.34,80.549 146.046,79.556C146.205,79.331 146.378,79.111 146.569,78.896L146.571,78.893C146.299,79.103 146.031,79.328 145.774,79.566C144.842,80.431 144.046,81.484 143.675,82.717C143.641,82.829 143.527,82.895 143.415,82.867C142.035,82.53 141.114,82.343 140.454,82.232C139.378,82.051 138.991,82.072 138.442,81.986C138.372,81.974 138.311,81.932 138.274,81.871C138.238,81.809 138.23,81.734 138.253,81.666C138.544,80.789 138.87,80.006 139.247,79.305Z" style="fill:rgb(245,232,199);"/>
            </g>
            <g transform="matrix(2.55722,0,0,2.55722,-2224.8,-126.002)">
                <text x="1367.64px" y="138.346px" style="font-family:'TsukuBRdGothic-Regular', 'Tsukushi B Round Gothic', serif;font-size:77.842px;fill:rgb(245,232,199);">2</text>
                <text x="1412.71px" y="138.346px" style="font-family:'TsukuBRdGothic-Bold', 'Tsukushi B Round Gothic', serif;font-weight:700;font-size:77.842px;fill:rgb(245,232,199);">P<tspan x="1459.65px " y="138.346px ">a</tspan>cas</text>
            </g>
        </g>
    </g>
</svg>
