<?xml version="1.0" encoding="UTF-8" standalone="no"?>
<!DOCTYPE svg PUBLIC "-//W3C//DTD SVG 1.1//EN" "http://www.w3.org/Graphics/SVG/1.1/DTD/svg11.dtd">
<svg width="100%" height="100%" viewBox="0 0 500 401" version="1.1" xmlns="http://www.w3.org/2000/svg" xmlns:xlink="http://www.w3.org/1999/xlink" xml:space="preserve" xmlns:serif="http://www.serif.com/" style="fill-rule:evenodd;clip-rule:evenodd;stroke-linejoin:round;stroke-miterlimit:2;">
    <g transform="matrix(1,0,0,1,-304,-1364.31)">
        <g id="large-logo-beige" transform="matrix(1.96386,0,0,1.92308,-293.927,1364.31)">
            <rect x="304.465" y="0" width="254.601" height="208.201" style="fill:none;"/>
            <clipPath id="_clip1">
                <rect x="304.465" y="0" width="254.601" height="208.201"/>
            </clipPath>
            <g clip-path="url(#_clip1)">
                <g transform="matrix(2.73865,0,0,2.79673,20.8967,-207.87)">
                    <path d="M103.543,148.254C103.543,148.254 115.809,148.449 131.433,148.602C135.59,148.643 139.984,148.673 144.448,148.694C146.3,148.703 148.163,148.708 150.026,148.708C152.515,148.707 155.003,148.7 157.463,148.687C161.287,148.666 165.041,148.633 168.619,148.597C184.243,148.438 196.509,148.254 196.509,148.254C196.634,148.254 196.736,148.152 196.736,148.027C196.736,147.902 196.634,147.8 196.509,147.8C196.509,147.8 184.243,147.616 168.619,147.457C165.041,147.421 161.287,147.388 157.463,147.368C155.003,147.354 152.515,147.347 150.026,147.346C148.163,147.346 146.3,147.351 144.448,147.36C139.984,147.381 135.59,147.411 131.433,147.452C115.809,147.605 103.543,147.8 103.543,147.8C103.418,147.8 103.316,147.902 103.316,148.027C103.316,148.152 103.418,148.254 103.543,148.254Z" style="fill:rgb(245,232,199);"/>
                </g>
                <g transform="matrix(2.73865,0,0,2.79673,19.3679,-211.385)">
                    <path d="M148.788,76.973C147.332,77.478 146.154,78.193 145.225,79.09C144.212,80.068 143.498,81.268 143.049,82.666C143.004,82.814 143.041,82.975 143.146,83.089C143.25,83.202 143.407,83.252 143.558,83.22C145.028,82.932 146.58,83.309 148.062,83.993C150.335,85.041 152.437,86.826 153.843,88.237C155.116,89.508 155.472,90.587 154.942,91.393C154.405,92.209 153.121,92.628 151.453,92.656C150.638,92.67 149.82,92.678 149.005,92.652C148.471,92.636 147.938,92.603 147.407,92.549C147.164,92.526 146.924,92.616 146.755,92.792C146.585,92.968 146.505,93.211 146.537,93.453C146.946,96.728 147.369,99.668 147.771,102.48C148.207,105.53 148.602,108.43 148.865,111.456C149.181,115.11 149.319,118.948 149.075,123.463C148.87,127.595 148.105,132.003 147.042,136.358C145.98,140.714 144.623,145.015 143.197,148.923C143.14,149.072 143.214,149.239 143.363,149.297C143.512,149.354 143.679,149.28 143.737,149.131C145.31,145.247 146.838,140.97 148.049,136.62C149.274,132.223 150.171,127.755 150.505,123.556C150.85,118.962 150.823,115.048 150.547,111.321C150.32,108.255 149.933,105.317 149.478,102.232C149.106,99.707 148.676,97.086 148.265,94.207C148.501,94.216 148.737,94.221 148.972,94.223C149.814,94.231 150.656,94.205 151.496,94.172C153.765,94.079 155.424,93.28 156.126,92.15C156.891,90.918 156.701,89.178 154.734,87.319C153.202,85.878 150.918,84.069 148.481,83.042C147.034,82.431 145.536,82.093 144.104,82.244C144.474,81.242 145.012,80.358 145.739,79.603C146.573,78.736 147.649,78.036 148.987,77.515C149.137,77.46 149.213,77.294 149.158,77.144C149.103,76.995 148.937,76.918 148.788,76.973Z" style="fill:rgb(245,232,199);"/>
                </g>
                <g transform="matrix(2.73865,0,0,2.79673,19.3679,-211.385)">
                    <path d="M116.657,149.068C116.657,149.068 117.493,144.799 120.387,141.716C121.255,140.791 122.316,139.984 123.612,139.431C124.712,138.961 125.982,138.676 127.461,138.693C129.654,138.641 131.317,139.577 132.603,140.863C135.7,143.963 136.705,149.069 136.705,149.069C136.728,149.227 136.875,149.336 137.033,149.313C137.191,149.29 137.3,149.143 137.277,148.985C137.277,148.985 137.009,146.192 135.755,143.311C135.236,142.118 134.543,140.92 133.645,139.89C132.59,138.68 131.244,137.712 129.571,137.246C128.92,137.064 128.216,136.971 127.461,136.962C126.461,136.968 125.54,137.079 124.699,137.302C122.369,137.918 120.626,139.252 119.357,140.821C118.13,142.337 117.347,144.067 116.859,145.549C116.219,147.489 116.085,148.986 116.085,148.986C116.062,149.144 116.172,149.29 116.33,149.313C116.488,149.336 116.634,149.226 116.657,149.068Z" style="fill:rgb(245,232,199);"/>
                </g>
                <g transform="matrix(2.73865,0,0,2.79673,19.3679,-211.385)">
                    <path d="M143.351,75.318C139.51,76.927 137.694,79.505 136.903,82.568C135.854,86.632 136.662,91.587 136.977,96.309C137.185,99.421 137.184,102.428 136.174,104.978C134.223,109.965 130.01,111.31 125.384,111.901C123.039,112.2 120.584,112.305 118.226,112.526C115.589,112.773 113.072,113.172 110.944,114.097C107.393,115.641 104.836,118.599 104.587,124.792C104.522,126.525 104.632,128.233 104.865,129.929C105.208,132.432 105.812,134.904 106.476,137.382C107.03,139.444 107.713,141.486 108.543,143.465C109.373,145.445 110.347,147.362 111.474,149.175C111.556,149.312 111.734,149.357 111.871,149.275C112.008,149.193 112.052,149.015 111.97,148.879C110.923,147.059 110.031,145.143 109.278,143.171C108.526,141.203 107.914,139.18 107.433,137.14C106.854,134.69 106.335,132.247 106.068,129.781C105.891,128.153 105.826,126.516 105.933,124.86C106.266,119.461 108.451,116.874 111.574,115.582C113.571,114.756 115.922,114.445 118.379,114.234C120.762,114.03 123.242,113.929 125.608,113.612C130.821,112.912 135.473,111.178 137.593,105.521C138.613,102.761 138.592,99.537 138.281,96.205C137.851,91.598 136.882,86.783 137.782,82.78C138.429,79.904 140.057,77.465 143.583,75.848C143.729,75.784 143.796,75.613 143.732,75.467C143.668,75.321 143.497,75.254 143.351,75.318Z" style="fill:rgb(245,232,199);"/>
                </g>
                <g transform="matrix(-2.46615,0,0,2.4766,815.926,-163.997)">
                    <path d="M148.887,77.244C146.224,78.87 145.652,80.486 144.718,82.786C149.742,83.598 162.68,91.723 151.475,93.414C150.11,93.62 148.708,93.476 147.334,93.349C148.22,100.088 150.133,117.081 149.738,122.796C149.177,130.897 146.46,140.878 143.467,148.657L136.902,148.657C136.453,146.916 135.994,144.511 135.141,142.927C133.548,139.97 131.074,137.828 127.461,137.828C123.46,137.828 120.374,139.656 118.3,142.927C117.319,144.474 116.78,147.192 116.253,148.946L111.035,148.946C108.913,144.756 106.664,138.335 105.872,133.733C105.361,130.766 105.228,127.732 105.273,124.722C105.295,123.296 105.626,121.874 106.07,120.52C110.594,106.726 126.613,117.351 134.582,108.963C135.888,107.588 136.596,103.312 136.616,101.589C136.705,93.88 133.624,79.784 143.467,75.583C140.927,76.839 139.498,78.719 138.48,81.745C139.367,81.889 138.945,81.721 143.497,82.501C144.301,79.866 146.954,78.18 148.887,77.244Z" style="fill:rgb(245,232,199);"/>
                    <path d="M148.858,77.181C148.891,77.165 148.93,77.178 148.948,77.211C148.965,77.244 148.954,77.285 148.923,77.304C147.688,78.061 146.907,78.813 146.332,79.635C145.692,80.548 145.305,81.545 144.83,82.723C147.674,83.221 152.879,85.927 155.029,88.527C155.924,89.609 156.288,90.679 155.792,91.569C155.311,92.432 153.997,93.143 151.491,93.525C150.938,93.61 150.379,93.637 149.817,93.631C149.034,93.624 148.248,93.551 147.469,93.48C147.984,97.378 148.825,104.509 149.382,110.973C149.803,115.858 150.06,120.362 149.894,122.807C149.616,126.896 148.791,131.464 147.657,135.988C146.54,140.444 145.124,144.856 143.639,148.725C143.612,148.798 143.543,148.845 143.467,148.845L136.902,148.851C136.815,148.851 136.739,148.792 136.717,148.706C136.45,147.674 136.18,146.408 135.825,145.219C135.587,144.419 135.311,143.654 134.97,143.023C134.179,141.556 133.167,140.292 131.901,139.402C130.672,138.539 129.202,138.031 127.461,138.032C125.519,138.033 123.796,138.472 122.305,139.305C120.781,140.156 119.501,141.418 118.473,143.041C118.081,143.659 117.763,144.468 117.486,145.326C117.077,146.596 116.762,147.97 116.451,149.008C116.424,149.096 116.344,149.156 116.253,149.156L111.035,149.155C110.958,149.155 110.887,149.112 110.852,149.042C109.791,146.943 108.697,144.288 107.769,141.579C106.838,138.858 106.074,136.083 105.677,133.768C105.421,132.276 105.26,130.768 105.17,129.254C105.079,127.744 105.058,126.228 105.082,124.719C105.094,123.993 105.184,123.268 105.328,122.552C105.471,121.843 105.667,121.142 105.892,120.459C107.257,116.312 109.645,114.339 112.537,113.394C115.932,112.285 120.036,112.609 123.997,112.48C127.912,112.353 131.688,111.78 134.473,108.856C134.997,108.305 135.418,107.275 135.74,106.138C136.209,104.48 136.461,102.594 136.474,101.588C136.534,96.957 135.458,90.025 136.712,84.313C137.556,80.472 139.449,77.179 143.428,75.488C143.478,75.467 143.537,75.49 143.559,75.541C143.582,75.591 143.56,75.651 143.511,75.676C142.211,76.316 141.204,77.122 140.395,78.166C139.656,79.119 139.082,80.27 138.599,81.672C139.107,81.75 139.181,81.72 140.505,81.922C141.137,82.019 142.055,82.168 143.441,82.408C143.76,81.412 144.341,80.551 145.045,79.816C146.189,78.621 147.661,77.758 148.858,77.181ZM116.1,148.736C116.449,147.542 116.809,145.954 117.303,144.585C117.542,143.922 117.813,143.31 118.127,142.814C119.195,141.131 120.527,139.824 122.108,138.942C123.657,138.078 125.445,137.622 127.461,137.623C129.291,137.624 130.835,138.162 132.126,139.071C133.44,139.996 134.492,141.307 135.312,142.832C135.664,143.486 135.95,144.277 136.196,145.105C136.534,146.244 136.795,147.454 137.05,148.463C137.05,148.463 143.341,148.469 143.341,148.469C144.811,144.644 146.213,140.294 147.323,135.901C148.462,131.4 149.295,126.855 149.581,122.785C149.753,120.35 149.506,115.864 149.101,110.998C148.555,104.455 147.72,97.226 147.218,93.364C147.213,93.329 147.225,93.293 147.249,93.267C147.274,93.24 147.309,93.227 147.344,93.23C148.164,93.307 148.994,93.39 149.82,93.401C150.369,93.408 150.917,93.383 151.458,93.302C153.869,92.942 155.147,92.292 155.612,91.465C156.073,90.642 155.704,89.66 154.878,88.656C152.734,86.047 147.494,83.322 144.705,82.866C144.681,82.862 144.66,82.847 144.648,82.826C144.636,82.804 144.634,82.778 144.644,82.755C145.145,81.526 145.544,80.491 146.211,79.547C146.619,78.968 147.127,78.423 147.821,77.887L147.822,77.887C146.91,78.413 145.951,79.086 145.154,79.924C144.453,80.66 143.878,81.524 143.574,82.526C143.562,82.565 143.523,82.59 143.483,82.583C142.059,82.341 141.122,82.191 140.479,82.095C139.067,81.884 139.076,81.932 138.466,81.834C138.44,81.83 138.417,81.814 138.403,81.791C138.39,81.769 138.387,81.741 138.395,81.715C138.888,80.243 139.479,79.04 140.245,78.046C140.513,77.698 140.802,77.376 141.117,77.077C138.807,78.876 137.571,81.463 136.942,84.365C135.707,90.064 136.804,96.974 136.757,101.591C136.747,102.615 136.497,104.534 136.024,106.221C135.689,107.414 135.239,108.491 134.691,109.07C131.854,112.063 128.005,112.677 124.008,112.817C120.081,112.954 116.011,112.632 112.646,113.739C109.855,114.657 107.558,116.572 106.248,120.58C106.029,121.249 105.838,121.935 105.699,122.629C105.561,123.321 105.474,124.023 105.464,124.725C105.443,126.224 105.466,127.73 105.558,129.23C105.65,130.729 105.811,132.222 106.067,133.698C106.464,135.994 107.226,138.745 108.153,141.443C109.059,144.083 110.123,146.672 111.161,148.737C113.87,148.737 115.138,148.736 115.731,148.736L116.1,148.736Z" style="fill:rgb(245,232,199);"/>
                </g>
            </g>
        </g>
    </g>
</svg>
